<svg width="24" height="25" viewBox="0 0 24 25" fill="none" xmlns="http://www.w3.org/2000/svg">
<path d="M15.0001 23.4883H9.00014C7.68014 23.4883 6.58015 23.3583 5.65015 23.0783C5.31015 22.9783 5.09015 22.6483 5.11015 22.2983C5.36015 19.3083 8.39015 16.9583 12.0001 16.9583C15.6101 16.9583 18.6301 19.2983 18.8901 22.2983C18.9201 22.6583 18.7001 22.9783 18.3501 23.0783C17.4201 23.3583 16.3201 23.4883 15.0001 23.4883ZM6.72015 21.7983C7.38015 21.9283 8.13015 21.9883 9.00014 21.9883H15.0001C15.8701 21.9883 16.6201 21.9283 17.2801 21.7983C16.7501 19.8783 14.5601 18.4583 12.0001 18.4583C9.44015 18.4583 7.25015 19.8783 6.72015 21.7983Z" fill="#667085"/>
<path d="M15 2.73828H9C4 2.73828 2 4.73828 2 9.73828V15.7383C2 19.5183 3.14 21.5883 5.86 22.3583C6.08 19.7583 8.75 17.7083 12 17.7083C15.25 17.7083 17.92 19.7583 18.14 22.3583C20.86 21.5883 22 19.5183 22 15.7383V9.73828C22 4.73828 20 2.73828 15 2.73828ZM12 14.9083C10.02 14.9083 8.42 13.2983 8.42 11.3183C8.42 9.3383 10.02 7.73828 12 7.73828C13.98 7.73828 15.58 9.3383 15.58 11.3183C15.58 13.2983 13.98 14.9083 12 14.9083Z" stroke="#667085" stroke-width="1.5" stroke-linecap="round" stroke-linejoin="round"/>
<path d="M11.9999 15.6583C9.60992 15.6583 7.66992 13.7083 7.66992 11.3183C7.66992 8.9283 9.60992 6.98828 11.9999 6.98828C14.3899 6.98828 16.3299 8.9283 16.3299 11.3183C16.3299 13.7083 14.3899 15.6583 11.9999 15.6583ZM11.9999 8.48828C10.4399 8.48828 9.16992 9.7583 9.16992 11.3183C9.16992 12.8883 10.4399 14.1583 11.9999 14.1583C13.5599 14.1583 14.8299 12.8883 14.8299 11.3183C14.8299 9.7583 13.5599 8.48828 11.9999 8.48828Z" fill="#667085"/>
</svg>
