<svg width="24" height="25" viewBox="0 0 24 25" fill="none" xmlns="http://www.w3.org/2000/svg">
<path d="M10.1098 18.8884H6.31982C5.90982 18.8884 5.56982 18.5484 5.56982 18.1384V13.0184C5.56982 11.9784 6.41981 11.1284 7.45981 11.1284H10.1098C10.5198 11.1284 10.8598 11.4684 10.8598 11.8784V18.1284C10.8598 18.5484 10.5198 18.8884 10.1098 18.8884ZM7.06982 17.3884H9.3598V12.6384H7.45981C7.24981 12.6384 7.06982 12.8084 7.06982 13.0284V17.3884Z" fill="#667085"/>
<path d="M13.8901 18.8884H10.1001C9.6901 18.8884 9.3501 18.5484 9.3501 18.1384V8.47839C9.3501 7.43839 10.2001 6.58838 11.2401 6.58838H12.7601C13.8001 6.58838 14.6501 7.43839 14.6501 8.47839V18.1384C14.6401 18.5484 14.3101 18.8884 13.8901 18.8884ZM10.8601 17.3884H13.1501V8.47839C13.1501 8.26839 12.9801 8.08838 12.7601 8.08838H11.2401C11.0301 8.08838 10.8501 8.25839 10.8501 8.47839V17.3884H10.8601Z" fill="#667085"/>
<path d="M17.6801 18.8884H13.8901C13.4801 18.8884 13.1401 18.5484 13.1401 18.1384V13.5884C13.1401 13.1784 13.4801 12.8384 13.8901 12.8384H16.5401C17.5801 12.8384 18.4301 13.6884 18.4301 14.7284V18.1384C18.4301 18.5484 18.1001 18.8884 17.6801 18.8884ZM14.6401 17.3884H16.9301V14.7284C16.9301 14.5184 16.7601 14.3384 16.5401 14.3384H14.6401V17.3884Z" fill="#667085"/>
<path d="M15 23.4883H9C3.57 23.4883 1.25 21.1683 1.25 15.7383V9.73828C1.25 4.30828 3.57 1.98828 9 1.98828H15C20.43 1.98828 22.75 4.30828 22.75 9.73828V15.7383C22.75 21.1683 20.43 23.4883 15 23.4883ZM9 3.48828C4.39 3.48828 2.75 5.12828 2.75 9.73828V15.7383C2.75 20.3483 4.39 21.9883 9 21.9883H15C19.61 21.9883 21.25 20.3483 21.25 15.7383V9.73828C21.25 5.12828 19.61 3.48828 15 3.48828H9Z" fill="#667085"/>
</svg>
