<svg width="20" height="21" viewBox="0 0 20 21" fill="none" xmlns="http://www.w3.org/2000/svg">
<path d="M4.16663 9.0717H5.83329C7.49996 9.0717 8.33329 8.23836 8.33329 6.5717V4.90503C8.33329 3.23836 7.49996 2.40503 5.83329 2.40503H4.16663C2.49996 2.40503 1.66663 3.23836 1.66663 4.90503V6.5717C1.66663 8.23836 2.49996 9.0717 4.16663 9.0717Z" stroke="#667085" stroke-width="1.5" stroke-miterlimit="10" stroke-linecap="round" stroke-linejoin="round"/>
<path d="M14.1666 9.0717H15.8333C17.5 9.0717 18.3333 8.23836 18.3333 6.5717V4.90503C18.3333 3.23836 17.5 2.40503 15.8333 2.40503H14.1666C12.5 2.40503 11.6666 3.23836 11.6666 4.90503V6.5717C11.6666 8.23836 12.5 9.0717 14.1666 9.0717Z" stroke="#667085" stroke-width="1.5" stroke-miterlimit="10" stroke-linecap="round" stroke-linejoin="round"/>
<path d="M14.1666 19.0717H15.8333C17.5 19.0717 18.3333 18.2384 18.3333 16.5717V14.905C18.3333 13.2384 17.5 12.405 15.8333 12.405H14.1666C12.5 12.405 11.6666 13.2384 11.6666 14.905V16.5717C11.6666 18.2384 12.5 19.0717 14.1666 19.0717Z" stroke="#667085" stroke-width="1.5" stroke-miterlimit="10" stroke-linecap="round" stroke-linejoin="round"/>
<path d="M4.16663 19.0717H5.83329C7.49996 19.0717 8.33329 18.2384 8.33329 16.5717V14.905C8.33329 13.2384 7.49996 12.405 5.83329 12.405H4.16663C2.49996 12.405 1.66663 13.2384 1.66663 14.905V16.5717C1.66663 18.2384 2.49996 19.0717 4.16663 19.0717Z" stroke="#667085" stroke-width="1.5" stroke-miterlimit="10" stroke-linecap="round" stroke-linejoin="round"/>
</svg>
