<svg width="24" height="25" viewBox="0 0 24 25" fill="none" xmlns="http://www.w3.org/2000/svg">
<path d="M21.9145 12.4022C21.052 8.50319 19.7728 6.016 17.7225 5.40991C17.3254 5.29407 16.9136 5.23628 16.5 5.23834C15.2395 5.23834 14.2448 5.98834 12 5.98834C9.75512 5.98834 8.75856 5.23834 7.49996 5.23834C7.06906 5.23611 6.63995 5.29385 6.22496 5.40991C4.17184 6.016 2.9034 8.50553 2.03106 12.4022C1.14043 16.3824 1.30168 19.5273 3.04262 20.131C4.26137 20.5529 5.35121 19.6805 6.3834 18.3966C7.55527 16.9341 8.99856 16.4841 12 16.4841C15.0014 16.4841 16.3884 16.9341 17.5622 18.3966C18.5934 19.6815 19.7236 20.543 20.91 20.1385C22.8328 19.4818 22.8056 16.4293 21.9145 12.4022Z" stroke="#667085" stroke-width="2" stroke-miterlimit="10"/>
<path d="M13.6875 12.1758C14.2053 12.1758 14.625 11.756 14.625 11.2383C14.625 10.7205 14.2053 10.3008 13.6875 10.3008C13.1697 10.3008 12.75 10.7205 12.75 11.2383C12.75 11.756 13.1697 12.1758 13.6875 12.1758Z" fill="#667085"/>
<path d="M15.75 14.2383C15.5645 14.2383 15.3831 14.1832 15.2289 14.0801C15.0747 13.977 14.9545 13.8304 14.8836 13.659C14.8128 13.4876 14.7943 13.2989 14.8307 13.117C14.8671 12.9351 14.9566 12.7681 15.0879 12.637C15.2193 12.506 15.3865 12.4169 15.5685 12.381C15.7506 12.3451 15.9391 12.364 16.1104 12.4353C16.2817 12.5066 16.4279 12.6272 16.5306 12.7816C16.6334 12.9361 16.688 13.1176 16.6875 13.3031C16.6869 13.5514 16.5878 13.7892 16.4121 13.9645C16.2363 14.1398 15.9982 14.2383 15.75 14.2383Z" fill="#667085"/>
<path d="M15.75 10.1133C16.2678 10.1133 16.6875 9.69355 16.6875 9.17578C16.6875 8.65801 16.2678 8.23828 15.75 8.23828C15.2322 8.23828 14.8125 8.65801 14.8125 9.17578C14.8125 9.69355 15.2322 10.1133 15.75 10.1133Z" fill="#667085"/>
<path d="M17.8125 12.1758C18.3303 12.1758 18.75 11.756 18.75 11.2383C18.75 10.7205 18.3303 10.3008 17.8125 10.3008C17.2947 10.3008 16.875 10.7205 16.875 11.2383C16.875 11.756 17.2947 12.1758 17.8125 12.1758Z" fill="#667085"/>
<path d="M7.5 8.98828V13.4883" stroke="#667085" stroke-width="2" stroke-linecap="round" stroke-linejoin="round"/>
<path d="M9.75 11.2383H5.25" stroke="#667085" stroke-width="2" stroke-linecap="round" stroke-linejoin="round"/>
</svg>
