<svg width="16" height="17" viewBox="0 0 16 17" fill="none" xmlns="http://www.w3.org/2000/svg">
<path d="M6.00016 15.1663H10.0002C13.3335 15.1663 14.6668 13.833 14.6668 10.4997V6.49967C14.6668 3.16634 13.3335 1.83301 10.0002 1.83301H6.00016C2.66683 1.83301 1.3335 3.16634 1.3335 6.49967V10.4997C1.3335 13.833 2.66683 15.1663 6.00016 15.1663Z" stroke="#0094BA" stroke-width="1.5" stroke-linecap="round" stroke-linejoin="round"/>
<path d="M5.99984 7.16667C6.73622 7.16667 7.33317 6.56971 7.33317 5.83333C7.33317 5.09695 6.73622 4.5 5.99984 4.5C5.26346 4.5 4.6665 5.09695 4.6665 5.83333C4.6665 6.56971 5.26346 7.16667 5.99984 7.16667Z" stroke="#0094BA" stroke-width="1.5" stroke-linecap="round" stroke-linejoin="round"/>
<path d="M1.77979 13.133L5.06645 10.9264C5.59312 10.573 6.35312 10.613 6.82645 11.0197L7.04645 11.213C7.56645 11.6597 8.40645 11.6597 8.92645 11.213L11.6998 8.83305C12.2198 8.38638 13.0598 8.38638 13.5798 8.83305L14.6665 9.76638" stroke="#0094BA" stroke-width="1.5" stroke-linecap="round" stroke-linejoin="round"/>
</svg>
