<svg width="25" height="24" viewBox="0 0 25 24" fill="none" xmlns="http://www.w3.org/2000/svg">
<path d="M5.31066 12L8.71755 15.4069L8.71783 15.4072C8.85848 15.5478 8.9375 15.7386 8.9375 15.9375C8.9375 15.9495 8.93721 15.9615 8.93663 15.9735C8.92768 16.1598 8.84967 16.336 8.71783 16.4678C8.57718 16.6085 8.38641 16.6875 8.1875 16.6875C7.98859 16.6875 7.79782 16.6085 7.65717 16.4678L7.65689 16.4675L3.71967 12.5303C3.57902 12.3897 3.5 12.1989 3.5 12C3.5 11.8011 3.57902 11.6103 3.71967 11.4697L7.65708 7.53226C7.79782 7.39152 7.98859 7.3125 8.1875 7.3125C8.38641 7.3125 8.57718 7.39152 8.71783 7.53217C8.85848 7.67282 8.9375 7.86359 8.9375 8.0625C8.9375 8.26141 8.85848 8.45218 8.71783 8.59283L5.31066 12Z" fill="#FF4747"/>
<path d="M14.75 12.75H4.25C3.83579 12.75 3.5 12.4142 3.5 12C3.5 11.5858 3.83579 11.25 4.25 11.25H14.75C15.1642 11.25 15.5 11.5858 15.5 12C15.5 12.4142 15.1642 12.75 14.75 12.75Z" fill="#FF4747"/>
<path d="M20 4.5H14.75C14.3358 4.5 14 4.16421 14 3.75C14 3.33579 14.3358 3 14.75 3H20C20.6213 3 21.0607 3.43934 21.0607 3.43934C21.5 3.87868 21.5 4.5 21.5 4.5V19.5C21.5 20.1213 21.0607 20.5607 21.0607 20.5607C20.6213 21 20 21 20 21H14.75C14.3358 21 14 20.6642 14 20.25C14 19.8358 14.3358 19.5 14.75 19.5H20V4.5Z" fill="#FF4747"/>
</svg>
