<svg width="24" height="25" viewBox="0 0 24 25" fill="none" xmlns="http://www.w3.org/2000/svg">
<path d="M12 15.7383C13.6569 15.7383 15 14.3951 15 12.7383C15 11.0814 13.6569 9.73828 12 9.73828C10.3431 9.73828 9 11.0814 9 12.7383C9 14.3951 10.3431 15.7383 12 15.7383Z" stroke="#667085" stroke-width="1.5" stroke-miterlimit="10" stroke-linecap="round" stroke-linejoin="round"/>
<path d="M2 13.6182V11.8582C2 10.8182 2.85 9.95822 3.9 9.95822C5.71 9.95822 6.45 8.67822 5.54 7.10822C5.02 6.20822 5.33 5.03822 6.24 4.51822L7.97 3.52822C8.76 3.05822 9.78 3.33822 10.25 4.12822L10.36 4.31822C11.26 5.88822 12.74 5.88822 13.65 4.31822L13.76 4.12822C14.23 3.33822 15.25 3.05822 16.04 3.52822L17.77 4.51822C18.68 5.03822 18.99 6.20822 18.47 7.10822C17.56 8.67822 18.3 9.95822 20.11 9.95822C21.15 9.95822 22.01 10.8082 22.01 11.8582V13.6182C22.01 14.6582 21.16 15.5182 20.11 15.5182C18.3 15.5182 17.56 16.7982 18.47 18.3682C18.99 19.2782 18.68 20.4382 17.77 20.9582L16.04 21.9482C15.25 22.4182 14.23 22.1382 13.76 21.3482L13.65 21.1582C12.75 19.5882 11.27 19.5882 10.36 21.1582L10.25 21.3482C9.78 22.1382 8.76 22.4182 7.97 21.9482L6.24 20.9582C5.33 20.4382 5.02 19.2682 5.54 18.3682C6.45 16.7982 5.71 15.5182 3.9 15.5182C2.85 15.5182 2 14.6582 2 13.6182Z" stroke="#667085" stroke-width="1.5" stroke-miterlimit="10" stroke-linecap="round" stroke-linejoin="round"/>
</svg>
