<svg width="24" height="25" viewBox="0 0 24 25" fill="none" xmlns="http://www.w3.org/2000/svg">
<path d="M12 13.4883C8.83 13.4883 6.25 10.9083 6.25 7.73828C6.25 4.56828 8.83 1.98828 12 1.98828C15.17 1.98828 17.75 4.56828 17.75 7.73828C17.75 10.9083 15.17 13.4883 12 13.4883ZM12 3.48828C9.66 3.48828 7.75 5.39828 7.75 7.73828C7.75 10.0783 9.66 11.9883 12 11.9883C14.34 11.9883 16.25 10.0783 16.25 7.73828C16.25 5.39828 14.34 3.48828 12 3.48828Z" fill="#667085"/>
<path d="M20.5901 23.4883C20.1801 23.4883 19.8401 23.1483 19.8401 22.7383C19.8401 19.2883 16.3202 16.4883 12.0002 16.4883C7.68015 16.4883 4.16016 19.2883 4.16016 22.7383C4.16016 23.1483 3.82016 23.4883 3.41016 23.4883C3.00016 23.4883 2.66016 23.1483 2.66016 22.7383C2.66016 18.4683 6.85015 14.9883 12.0002 14.9883C17.1502 14.9883 21.3401 18.4683 21.3401 22.7383C21.3401 23.1483 21.0001 23.4883 20.5901 23.4883Z" fill="#667085"/>
</svg>
