<svg width="36" height="33" viewBox="0 0 36 33" fill="none" xmlns="http://www.w3.org/2000/svg">
<path d="M16.7308 13.1926V19.5388C16.7308 20.2397 17.299 20.808 18 20.808C18.701 20.808 19.2693 20.2397 19.2693 19.5388V13.1926C19.2693 12.4916 18.701 11.9234 18 11.9234C17.299 11.9234 16.7308 12.4916 16.7308 13.1926Z" fill="#F04438"/>
<path fill-rule="evenodd" clip-rule="evenodd" d="M14.7122 2.40293C14.7122 2.40293 15.2184 1.52166 16.0979 1.01163C16.0979 1.01163 16.9802 0.5 18.0001 0.5C18.0001 0.5 19.02 0.5 19.9022 1.01163C19.9022 1.01163 20.7845 1.52325 21.2911 2.40844L35.2495 26.5183C35.2495 26.5183 35.7595 27.4016 35.7604 28.4201C35.7604 28.4201 35.7613 29.4386 35.2536 30.3215C35.2536 30.3215 34.7459 31.2044 33.8652 31.716C33.8652 31.716 32.9845 32.2276 31.9661 32.2312L4.03853 32.2312C4.03853 32.2312 3.01559 32.2276 2.13491 31.716C2.13491 31.716 1.25424 31.2044 0.746558 30.3215C0.746558 30.3215 0.238877 29.4386 0.239778 28.4201C0.239778 28.4201 0.240682 27.4016 0.749927 26.5196L14.709 2.40843L14.7122 2.40293ZM2.94829 27.7889L16.9089 3.67509L16.9121 3.66945L16.9129 3.66821C16.9129 3.66821 17.0802 3.37638 17.3713 3.20758C17.3713 3.20758 17.663 3.03846 18.0001 3.03846C18.0001 3.03846 18.3372 3.03846 18.6288 3.20758C18.6288 3.20758 18.9205 3.37669 19.0879 3.66928L33.0526 27.7902C33.0526 27.7902 33.2216 28.0829 33.2219 28.4224C33.2219 28.4224 33.2222 28.7619 33.053 29.0562C33.053 29.0562 32.8837 29.3505 32.5902 29.521C32.5902 29.521 32.2966 29.6915 31.9571 29.6927L4.03853 29.6927C4.03853 29.6927 3.70351 29.6915 3.40995 29.521C3.40995 29.521 3.11639 29.3505 2.94717 29.0562C2.94717 29.0562 2.77794 28.7619 2.77824 28.4224C2.77824 28.4224 2.77854 28.0829 2.94829 27.7889Z" fill="#F04438"/>
<path d="M19.9039 25.2503C19.9039 26.3018 19.0514 27.1542 18 27.1542C16.9486 27.1542 16.0962 26.3018 16.0962 25.2503C16.0962 24.1988 16.9486 23.3465 18 23.3465C19.0514 23.3465 19.9039 24.1988 19.9039 25.2503Z" fill="#F04438"/>
</svg>
