<svg width="246" height="283" viewBox="0 0 246 283" fill="none" xmlns="http://www.w3.org/2000/svg">
<path d="M122.801 282.116C55.11 282.116 0.271484 272.712 0.271484 261.2C0.271484 249.63 55.11 240.283 122.801 240.283C190.493 240.283 245.331 249.63 245.331 261.2C245.331 272.712 190.493 282.116 122.801 282.116Z" fill="#EEEEEE"/>
<path d="M220.597 179.926C220.597 164.196 209.458 148.466 195.749 148.466C182.039 148.466 170.957 164.196 170.957 179.926C170.957 195.599 182.039 208.366 195.749 208.366C209.458 208.366 220.597 195.599 220.597 179.926Z" fill="#73B9E6"/>
<path d="M195.748 208.366C195.748 208.366 195.748 208.366 195.691 208.366C195.748 208.366 195.748 208.366 195.748 208.366C209.458 208.366 220.597 195.599 220.597 179.926C220.597 195.599 209.458 208.366 195.748 208.366ZM195.691 208.366C195.691 208.366 195.691 208.366 195.634 208.366C195.691 208.366 195.691 208.366 195.691 208.366ZM195.691 148.466C195.691 148.466 195.691 148.466 195.748 148.466C195.691 148.466 195.691 148.466 195.691 148.466Z" fill="#CED9E3"/>
<path d="M195.749 208.366C195.749 208.366 195.749 208.366 195.692 208.366C195.692 208.366 195.692 208.366 195.635 208.366C193.464 208.366 191.408 207.967 189.408 207.397C200.033 204.148 207.859 193.092 207.859 179.926C207.859 166.761 200.033 153.595 189.408 149.663C191.408 148.922 193.521 148.466 195.692 148.466C195.692 148.466 195.692 148.466 195.749 148.466C209.459 148.466 220.598 164.196 220.598 179.926C220.598 195.599 209.459 208.366 195.749 208.366Z" fill="#62A5D5"/>
<path d="M75.5592 179.926C75.5592 164.196 64.4773 148.466 50.7677 148.466C37.058 148.466 25.9189 164.196 25.9189 179.926C25.9189 195.599 37.058 208.366 50.7677 208.366C64.4773 208.366 75.5592 195.599 75.5592 179.926Z" fill="#73B9E6"/>
<path d="M50.77 208.365C50.7129 208.365 50.7129 208.365 50.7129 208.365C50.7129 208.365 50.7129 208.365 50.77 208.365C64.4796 208.365 75.5616 195.598 75.5616 179.925C75.5616 195.598 64.4796 208.365 50.77 208.365Z" fill="#CED9E3"/>
<path d="M50.7679 208.366C50.7108 208.366 50.7108 208.366 50.7108 208.366C50.6537 208.366 50.6537 208.366 50.6537 208.366C48.483 208.366 46.3694 207.967 44.3701 207.397C54.9951 204.148 62.821 193.092 62.821 179.926C62.821 166.761 54.9951 153.595 44.3701 149.663C46.4266 148.922 48.483 148.466 50.7108 148.466C50.7108 148.466 50.7108 148.466 50.7679 148.466C64.4776 148.466 75.5595 164.196 75.5595 179.926C75.5595 195.599 64.4776 208.366 50.7679 208.366Z" fill="#62A5D5"/>
<path d="M28.4326 207L33.8022 240.398C34.602 245.129 38.7148 248.605 43.5132 248.605H59.9648C64.7631 248.605 68.876 245.129 69.6186 240.398L75.0454 207H28.4326Z" fill="#FFE8CC"/>
<path d="M75.0454 207H28.4326L29.1752 211.616H65.1059L60.4789 240.398C59.6792 245.129 55.5663 248.605 50.7679 248.605H59.9648C64.7631 248.605 68.876 245.129 69.6186 240.398L74.3028 211.616L75.0454 207Z" fill="#AECFE5"/>
<path d="M75.5604 197.428H27.9195C25.2347 197.428 23.0068 199.593 23.0068 202.272C23.0068 204.951 25.2347 207.117 27.9195 207.117H75.5604C78.2452 207.117 80.4159 204.951 80.4159 202.272C80.4159 199.593 78.2452 197.428 75.5604 197.428Z" fill="#D2E8F8"/>
<path d="M171.357 207L176.784 240.398C177.527 245.129 181.64 248.605 186.438 248.605H202.947C207.745 248.605 211.801 245.129 212.601 240.398L217.97 207H171.357Z" fill="#FFE8CC"/>
<path d="M217.97 207H171.357L172.1 211.616H208.088L203.404 240.398C202.661 245.129 198.548 248.605 193.75 248.605H202.947C207.745 248.605 211.801 245.129 212.601 240.398L217.228 211.616L217.97 207Z" fill="#AECFE5"/>
<path d="M218.484 197.428H170.843C168.158 197.428 165.987 199.593 165.987 202.272C165.987 204.951 168.158 207.117 170.843 207.117H218.484C221.169 207.117 223.396 204.951 223.396 202.272C223.396 199.593 221.169 197.428 218.484 197.428Z" fill="#D2E8F8"/>
<path d="M181.182 141.175H211.172C215.113 141.175 218.369 138.098 218.484 134.165V133.88C218.484 127.839 213.628 122.88 207.573 122.709C206.488 122.652 205.459 122.766 204.488 123.051C203.574 118.777 199.747 115.528 195.177 115.528C190.379 115.528 186.437 119.005 185.695 123.564C184.781 123.336 183.81 123.222 182.781 123.279C177.583 123.45 173.527 127.725 173.585 132.911C173.642 134.621 174.099 136.274 174.898 137.642C176.212 139.865 178.611 141.175 181.182 141.175Z" fill="#949494"/>
<path d="M170.385 34.1989L62.8782 33.9709C54.481 33.9709 47.6262 40.7532 47.6262 49.1312L47.2834 232.023C47.2834 240.344 54.0811 247.183 62.4212 247.24L169.928 247.468C178.325 247.468 185.18 240.629 185.18 232.308L185.522 49.4162C185.579 41.0951 178.725 34.2559 170.385 34.1989Z" fill="#0094BA"/>
<path d="M169.414 46.7338H157.59C156.619 46.7338 155.705 47.1898 155.134 48.0447L152.335 52.2052C149.478 56.5937 144.566 59.1584 139.368 59.1584L93.7258 59.0444C88.5276 59.0444 83.6721 56.4227 80.8159 52.0912L78.0169 47.8737C77.5028 47.0758 76.5888 46.5629 75.5606 46.5629L63.7931 46.5059C62.1366 46.5059 60.8227 47.8167 60.8227 49.4695L60.4229 231.735C60.4229 233.33 61.7938 234.698 63.3933 234.698L169.015 234.926C170.671 234.926 171.985 233.615 171.985 231.962L172.385 49.6975C172.385 48.1017 171.014 46.7338 169.414 46.7338Z" fill="#D2E8F8"/>
<path d="M156.846 199.021L72.3604 198.85C69.9612 198.85 67.9619 200.787 67.9619 203.181L67.8477 250.942C67.8477 253.335 69.847 255.273 72.189 255.273L156.732 255.444C159.131 255.444 161.073 253.506 161.073 251.113L161.187 203.352C161.187 200.958 159.245 199.021 156.846 199.021Z" fill="#0094BA"/>
<path d="M150.394 247.694L80.1889 247.637C79.6748 247.637 79.2178 248.093 79.2178 248.606V248.72C79.2178 249.233 79.6748 249.688 80.1889 249.688L150.394 249.745C150.908 249.745 151.365 249.29 151.365 248.777V248.663C151.365 248.15 150.965 247.694 150.394 247.694Z" fill="#6696CE"/>
<path d="M150.393 247.693H100.753V249.688L150.393 249.745C150.907 249.745 151.364 249.289 151.364 248.776V248.662C151.364 248.149 150.964 247.693 150.393 247.693Z" fill="#91CAEE"/>
<path d="M102.751 248.721C102.751 247.467 101.722 246.441 100.466 246.441C99.2089 246.441 98.1807 247.467 98.1807 248.721C98.1807 249.975 99.2089 251.001 100.466 251.001C101.722 251.001 102.751 249.975 102.751 248.721Z" fill="#FEFEFE"/>
<path d="M128.342 222.787C128.342 215.378 122.173 209.394 114.575 209.394C106.978 209.394 100.809 215.378 100.809 222.787C100.809 230.196 106.978 236.18 114.575 236.18C122.173 236.18 128.342 230.196 128.342 222.787Z" fill="#FEFEFE"/>
<path d="M217.569 60.6436L138.453 60.4727C136.225 60.4727 134.34 62.2964 134.34 64.5192L134.283 109.259C134.283 111.482 136.111 113.306 138.339 113.363L217.455 113.477C219.683 113.534 221.511 111.653 221.511 109.43L221.625 64.7472C221.625 62.4674 219.797 60.6436 217.569 60.6436Z" fill="#32AE3B"/>
<path d="M198.318 73.1797H157.532C156.047 73.1797 154.79 74.4335 154.79 75.9154C154.79 77.4542 156.047 78.7081 157.532 78.7081H198.318C199.86 78.7081 201.117 77.4542 201.117 75.9154C201.117 74.4335 199.86 73.1797 198.318 73.1797Z" fill="#EEEEEE"/>
<path d="M188.949 85.2852H167.527C165.985 85.2852 164.728 86.5391 164.728 88.0209C164.728 89.5598 165.985 90.8136 167.527 90.8136H188.949C190.434 90.8136 191.691 89.5598 191.691 88.0209C191.691 86.5391 190.434 85.2852 188.949 85.2852Z" fill="#EEEEEE"/>
<path d="M194.926 98.8291H160.138C158.596 98.8291 157.339 100.026 157.339 101.565C157.339 103.104 158.596 104.3 160.138 104.3H194.926C196.411 104.3 197.668 103.104 197.668 101.565C197.668 100.026 196.411 98.8291 194.926 98.8291Z" fill="#EEEEEE"/>
<path d="M21.293 90.9611H59.9085C64.9924 90.9611 69.1625 86.9716 69.2767 81.9562V81.5572C69.2767 73.8061 63.0502 67.3658 55.2243 67.1949C53.9105 67.1379 52.5967 67.3088 51.3399 67.5938C50.0832 62.1224 45.1706 57.9619 39.2869 57.9619C33.1747 57.9619 28.0907 62.4644 27.1196 68.3347C25.92 67.9928 24.6633 67.8218 23.3494 67.8788C16.666 68.1637 11.4678 73.6351 11.5249 80.3603C11.582 82.5261 12.2104 84.6348 13.2386 86.4016C14.8952 89.2513 17.9798 90.9611 21.293 90.9611Z" fill="#FF8B4C"/>
<path d="M127.143 25.647H157.19C161.075 25.647 164.388 22.5124 164.445 18.6369V18.3519C164.445 12.3106 159.589 7.29516 153.534 7.12418C152.506 7.12418 151.478 7.23816 150.507 7.46614C149.536 3.19163 145.708 0 141.139 0C136.397 0 132.399 3.4766 131.713 8.03607C130.742 7.8081 129.771 7.69411 128.743 7.69411C123.545 7.92209 119.546 12.1966 119.603 17.383C119.603 19.0928 120.06 20.6886 120.917 22.1134C122.174 24.2792 124.573 25.647 127.143 25.647Z" fill="#FF8B4C"/>
<path d="M105.152 107.606L9.86974 107.378C7.12781 107.378 4.95712 109.601 4.9 112.279L4.84287 166.138C4.78575 168.817 7.01356 171.04 9.69837 171.04L104.98 171.268C107.722 171.268 109.893 169.045 109.893 166.366L110.007 112.507C110.064 109.772 107.836 107.606 105.152 107.606Z" fill="#32AE3B"/>
<path d="M99.7804 128.405H56.5379C55.5097 128.405 54.71 129.203 54.71 130.229C54.71 131.198 55.5097 132.053 56.5379 132.053H99.7804C100.751 132.053 101.608 131.198 101.608 130.229C101.608 129.203 100.751 128.405 99.7804 128.405Z" fill="#FEFEFE"/>
<path d="M90.0123 137.412H56.5379C55.5097 137.412 54.71 138.267 54.71 139.236C54.71 140.262 55.5097 141.117 56.5379 141.117H90.0123C91.0405 141.117 91.8402 140.262 91.8402 139.236C91.8402 138.267 91.0405 137.412 90.0123 137.412Z" fill="#FEFEFE"/>
<path d="M85.4424 146.017H56.5379C55.5097 146.017 54.71 146.872 54.71 147.897C54.71 148.866 55.5097 149.721 56.5379 149.721H85.4424C86.4706 149.721 87.2703 148.866 87.2703 147.897C87.2703 146.872 86.4706 146.017 85.4424 146.017Z" fill="#FEFEFE"/>
<path d="M36.7736 129.888C36.7736 133.877 33.6889 137.069 29.8045 137.069C26.0344 137.069 22.8926 133.877 22.8926 129.888C22.8926 125.955 26.0344 122.764 29.8045 122.764C33.6889 122.764 36.7736 125.955 36.7736 129.888Z" fill="#FEFEFE"/>
<path d="M38.6586 142.198L34.4885 140.887C31.461 139.861 28.205 139.861 25.2345 140.83L21.0074 142.198C18.4368 143.053 16.666 145.447 16.666 148.182V154.907H42.9999V148.182C42.9999 145.447 41.2291 143.053 38.6586 142.198Z" fill="#FEFEFE"/>
</svg>
