<svg width="137" height="114" viewBox="0 0 137 114" fill="none" xmlns="http://www.w3.org/2000/svg">
<g clip-path="url(#clip0_164_18492)">
<path d="M-3.19193 25.5359L49.2481 -26.9042" stroke="#97BDFF" stroke-width="1.56389"/>
<path d="M-3.19193 48.3361L49.2481 -4.104" stroke="#97BDFF" stroke-width="1.56389"/>
<path d="M-3.19193 71.136L49.2481 18.696" stroke="#97BDFF" stroke-width="1.56389"/>
</g>
<g clip-path="url(#clip1_164_18492)">
<path d="M-3.19205 71.1356L49.248 18.6956" stroke="#97BDFF" stroke-width="1.56389"/>
<path d="M-3.19205 93.9356L49.248 41.4955" stroke="#97BDFF" stroke-width="1.56389"/>
<path d="M-3.19205 116.736L49.248 64.2957" stroke="#97BDFF" stroke-width="1.56389"/>
</g>
<g clip-path="url(#clip2_164_18492)">
<path d="M-3.19205 116.736L49.248 64.2957" stroke="#97BDFF" stroke-width="1.56389"/>
<path d="M-3.19205 139.536L49.248 87.0959" stroke="#97BDFF" stroke-width="1.56389"/>
<path d="M-3.19205 162.336L49.248 109.896" stroke="#97BDFF" stroke-width="1.56389"/>
</g>
<g clip-path="url(#clip3_164_18492)">
<path d="M42.4081 25.5358L94.8482 -26.9043" stroke="#97BDFF" stroke-width="1.56389"/>
<path d="M42.4081 48.336L94.8482 -4.10406" stroke="#97BDFF" stroke-width="1.56389"/>
<path d="M42.4081 71.1359L94.8482 18.6959" stroke="#97BDFF" stroke-width="1.56389"/>
</g>
<g clip-path="url(#clip4_164_18492)">
<path d="M42.4081 71.1356L94.8482 18.6956" stroke="#97BDFF" stroke-width="1.56389"/>
<path d="M42.4081 93.9356L94.8482 41.4955" stroke="#97BDFF" stroke-width="1.56389"/>
<path d="M42.4081 116.736L94.8482 64.2957" stroke="#97BDFF" stroke-width="1.56389"/>
</g>
<g clip-path="url(#clip5_164_18492)">
<path d="M42.4081 116.736L94.8482 64.2957" stroke="#97BDFF" stroke-width="1.56389"/>
<path d="M42.4081 139.536L94.8482 87.0959" stroke="#97BDFF" stroke-width="1.56389"/>
<path d="M42.4081 162.336L94.8482 109.896" stroke="#97BDFF" stroke-width="1.56389"/>
</g>
<g clip-path="url(#clip6_164_18492)">
<path d="M88.0081 25.5358L140.448 -26.9043" stroke="#97BDFF" stroke-width="1.56389"/>
<path d="M88.0081 48.336L140.448 -4.10406" stroke="#97BDFF" stroke-width="1.56389"/>
<path d="M88.0081 71.1359L140.448 18.6959" stroke="#97BDFF" stroke-width="1.56389"/>
</g>
<g clip-path="url(#clip7_164_18492)">
<path d="M88.0081 71.1356L140.448 18.6956" stroke="#97BDFF" stroke-width="1.56389"/>
<path d="M88.0081 93.9356L140.448 41.4955" stroke="#97BDFF" stroke-width="1.56389"/>
<path d="M88.0081 116.736L140.448 64.2957" stroke="#97BDFF" stroke-width="1.56389"/>
</g>
<g clip-path="url(#clip8_164_18492)">
<path d="M88.0081 116.736L140.448 64.2957" stroke="#97BDFF" stroke-width="1.56389"/>
<path d="M88.0081 139.536L140.448 87.0959" stroke="#97BDFF" stroke-width="1.56389"/>
<path d="M88.0081 162.336L140.448 109.896" stroke="#97BDFF" stroke-width="1.56389"/>
</g>
<defs>
<clipPath id="clip0_164_18492">
<rect width="45.6001" height="45.6001" fill="white" transform="translate(0 0.000305176)"/>
</clipPath>
<clipPath id="clip1_164_18492">
<rect width="45.6001" height="45.6001" fill="white" transform="translate(0 45.5998)"/>
</clipPath>
<clipPath id="clip2_164_18492">
<rect width="45.6001" height="45.6001" fill="white" transform="translate(0 91.2001)"/>
</clipPath>
<clipPath id="clip3_164_18492">
<rect width="45.6001" height="45.6001" fill="white" transform="translate(45.6001)"/>
</clipPath>
<clipPath id="clip4_164_18492">
<rect width="45.6001" height="45.6001" fill="white" transform="translate(45.6001 45.5998)"/>
</clipPath>
<clipPath id="clip5_164_18492">
<rect width="45.6001" height="45.6001" fill="white" transform="translate(45.6001 91.2001)"/>
</clipPath>
<clipPath id="clip6_164_18492">
<rect width="45.6001" height="45.6001" fill="white" transform="translate(91.2)"/>
</clipPath>
<clipPath id="clip7_164_18492">
<rect width="45.6001" height="45.6001" fill="white" transform="translate(91.2 45.5998)"/>
</clipPath>
<clipPath id="clip8_164_18492">
<rect width="45.6001" height="45.6001" fill="white" transform="translate(91.2 91.2001)"/>
</clipPath>
</defs>
</svg>
